<svg id="Layer_1" data-name="Layer 1" xmlns="http://www.w3.org/2000/svg" viewBox="0 0 99.04 141.73"><defs><style>.cls-1{fill:#1e1e1c;}</style></defs><rect class="cls-1" width="13.55" height="28.17"/><rect class="cls-1" x="85.39" width="13.55" height="28.17"/><rect class="cls-1" x="39.77" y="9.21" width="18.96" height="18.96"/><path class="cls-1" d="M120.16,141.73A49.61,49.61,0,0,0,77.37,92.66V84.51a49.62,49.62,0,0,0,42.79-49.08h-99a49.61,49.61,0,0,0,42.7,49.08v8.24a49.51,49.51,0,0,0-42.7,49h16a33.31,33.31,0,0,1,66.53,0h16.48ZM40.52,49.34l60.94-.62a33.3,33.3,0,0,1-60.94.62Z" transform="translate(-21.12)"/></svg>